<?xml version="1.0" standalone="no"?>
<!DOCTYPE svg PUBLIC "-//W3C//DTD SVG 20010904//EN"
 "http://www.w3.org/TR/2001/REC-SVG-20010904/DTD/svg10.dtd">
<svg version="1.0" xmlns="http://www.w3.org/2000/svg"
 width="1200.000000pt" height="1200.000000pt" viewBox="0 0 1200.000000 1200.000000"
 preserveAspectRatio="xMidYMid meet">
<metadata>
Created by potrace 1.11, written by Peter Selinger 2001-2013
</metadata>
<g transform="translate(0.000000,1200.000000) scale(0.100000,-0.100000)"
fill="#000000" stroke="none">
<path d="M0 5995 l0 -5995 6000 0 6000 0 0 5995 0 5995 -6000 0 -6000 0 0
-5995z m6241 4915 c870 -87 1626 -609 2004 -1385 121 -247 191 -467 232 -725
26 -164 26 -598 0 -755 -74 -447 -244 -832 -526 -1190 -70 -90 -286 -305 -376
-376 -103 -82 -247 -179 -352 -239 -50 -28 -90 -57 -88 -63 10 -28 1185 -4666
1185 -4676 0 -8 -643 -11 -2316 -11 l-2316 0 6 27 c4 16 272 1074 597 2352
324 1278 588 2325 587 2326 -2 1 -38 20 -82 43 -329 176 -653 475 -876 811
-528 793 -548 1846 -52 2664 416 686 1130 1131 1927 1200 93 8 350 6 446 -3z"/>
</g>
</svg>
